<mxfile host="app.diagrams.net" agent="Mozilla/5.0 (Windows NT 10.0; Win64; x64) AppleWebKit/537.36 (KHTML, like Gecko) Chrome/132.0.0.0 Safari/537.36" version="26.0.8">
  <diagram name="Page-1" id="YPrWlFKrOPUkRSzN4VJD">
    <mxGraphModel dx="1518" dy="1714" grid="1" gridSize="10" guides="1" tooltips="1" connect="1" arrows="1" fold="1" page="1" pageScale="1" pageWidth="850" pageHeight="1100" math="0" shadow="0">
      <root>
        <mxCell id="0" />
        <mxCell id="1" parent="0" />
        <mxCell id="aqshu1UL6HPCw5Wz6J86-3" value="" style="rounded=0;whiteSpace=wrap;html=1;" vertex="1" parent="1">
          <mxGeometry x="40" y="-1000" width="760" height="60" as="geometry" />
        </mxCell>
        <mxCell id="aqshu1UL6HPCw5Wz6J86-4" value="HOME" style="text;strokeColor=none;fillColor=none;align=left;verticalAlign=middle;spacingLeft=4;spacingRight=4;overflow=hidden;points=[[0,0.5],[1,0.5]];portConstraint=eastwest;rotatable=0;whiteSpace=wrap;html=1;" vertex="1" parent="1">
          <mxGeometry x="130" y="-985" width="70" height="30" as="geometry" />
        </mxCell>
        <mxCell id="aqshu1UL6HPCw5Wz6J86-7" value="" style="whiteSpace=wrap;html=1;aspect=fixed;" vertex="1" parent="1">
          <mxGeometry x="40" y="-940" width="550" height="550" as="geometry" />
        </mxCell>
        <mxCell id="aqshu1UL6HPCw5Wz6J86-8" value="" style="rounded=0;whiteSpace=wrap;html=1;" vertex="1" parent="1">
          <mxGeometry x="590" y="-940" width="210" height="550" as="geometry" />
        </mxCell>
        <mxCell id="aqshu1UL6HPCw5Wz6J86-9" value="" style="rounded=1;whiteSpace=wrap;html=1;" vertex="1" parent="1">
          <mxGeometry x="600" y="-880" width="190" height="150" as="geometry" />
        </mxCell>
        <mxCell id="aqshu1UL6HPCw5Wz6J86-5" value="USER" style="text;strokeColor=none;fillColor=none;align=left;verticalAlign=middle;spacingLeft=4;spacingRight=4;overflow=hidden;points=[[0,0.5],[1,0.5]];portConstraint=eastwest;rotatable=0;whiteSpace=wrap;html=1;" vertex="1" parent="1">
          <mxGeometry x="675" y="-920" width="70" height="30" as="geometry" />
        </mxCell>
        <mxCell id="aqshu1UL6HPCw5Wz6J86-12" value="AppleMusic/Spotify" style="text;strokeColor=none;fillColor=none;align=left;verticalAlign=middle;spacingLeft=4;spacingRight=4;overflow=hidden;points=[[0,0.5],[1,0.5]];portConstraint=eastwest;rotatable=0;whiteSpace=wrap;html=1;" vertex="1" parent="1">
          <mxGeometry x="650" y="-710" width="120" height="30" as="geometry" />
        </mxCell>
        <mxCell id="aqshu1UL6HPCw5Wz6J86-13" value="Actor" style="shape=umlActor;verticalLabelPosition=bottom;verticalAlign=top;html=1;outlineConnect=0;" vertex="1" parent="1">
          <mxGeometry x="680" y="-835" width="30" height="60" as="geometry" />
        </mxCell>
        <mxCell id="aqshu1UL6HPCw5Wz6J86-15" value="@username" style="text;strokeColor=none;fillColor=none;align=left;verticalAlign=middle;spacingLeft=4;spacingRight=4;overflow=hidden;points=[[0,0.5],[1,0.5]];portConstraint=eastwest;rotatable=0;whiteSpace=wrap;html=1;" vertex="1" parent="1">
          <mxGeometry x="660" y="-910" width="120" height="30" as="geometry" />
        </mxCell>
        <mxCell id="aqshu1UL6HPCw5Wz6J86-16" value="" style="rounded=1;whiteSpace=wrap;html=1;" vertex="1" parent="1">
          <mxGeometry x="610" y="-670" width="180" height="260" as="geometry" />
        </mxCell>
        <mxCell id="aqshu1UL6HPCw5Wz6J86-18" value="Favorite" style="text;strokeColor=none;fillColor=none;align=left;verticalAlign=middle;spacingLeft=4;spacingRight=4;overflow=hidden;points=[[0,0.5],[1,0.5]];portConstraint=eastwest;rotatable=0;whiteSpace=wrap;html=1;" vertex="1" parent="1">
          <mxGeometry x="430" y="-985" width="70" height="30" as="geometry" />
        </mxCell>
        <mxCell id="aqshu1UL6HPCw5Wz6J86-19" value="" style="rounded=1;whiteSpace=wrap;html=1;" vertex="1" parent="1">
          <mxGeometry x="70" y="-890" width="220" height="180" as="geometry" />
        </mxCell>
        <mxCell id="aqshu1UL6HPCw5Wz6J86-20" value="" style="rounded=1;whiteSpace=wrap;html=1;" vertex="1" parent="1">
          <mxGeometry x="100" y="-880" width="160" height="30" as="geometry" />
        </mxCell>
        <mxCell id="aqshu1UL6HPCw5Wz6J86-21" value="" style="ellipse;whiteSpace=wrap;html=1;aspect=fixed;" vertex="1" parent="1">
          <mxGeometry x="220" y="-875" width="20" height="20" as="geometry" />
        </mxCell>
        <mxCell id="aqshu1UL6HPCw5Wz6J86-26" value="" style="rounded=1;whiteSpace=wrap;html=1;" vertex="1" parent="1">
          <mxGeometry x="350" y="-890" width="220" height="180" as="geometry" />
        </mxCell>
        <mxCell id="aqshu1UL6HPCw5Wz6J86-27" value="" style="rounded=1;whiteSpace=wrap;html=1;" vertex="1" parent="1">
          <mxGeometry x="90" y="-840" width="180" height="120" as="geometry" />
        </mxCell>
        <mxCell id="aqshu1UL6HPCw5Wz6J86-28" value="Recent Artits" style="text;strokeColor=none;fillColor=none;align=left;verticalAlign=middle;spacingLeft=4;spacingRight=4;overflow=hidden;points=[[0,0.5],[1,0.5]];portConstraint=eastwest;rotatable=0;whiteSpace=wrap;html=1;" vertex="1" parent="1">
          <mxGeometry x="135" y="-840" width="85" height="30" as="geometry" />
        </mxCell>
        <mxCell id="aqshu1UL6HPCw5Wz6J86-29" value="&lt;ol&gt;&lt;li&gt;Artist 1&lt;/li&gt;&lt;li&gt;Artist 2&lt;/li&gt;&lt;li&gt;Artist 3&lt;/li&gt;&lt;/ol&gt;" style="text;strokeColor=none;fillColor=none;html=1;whiteSpace=wrap;verticalAlign=middle;overflow=hidden;" vertex="1" parent="1">
          <mxGeometry x="90" y="-820" width="100" height="80" as="geometry" />
        </mxCell>
        <mxCell id="aqshu1UL6HPCw5Wz6J86-32" value="" style="shape=singleArrow;whiteSpace=wrap;html=1;" vertex="1" parent="1">
          <mxGeometry x="295" y="-810" width="40" height="20" as="geometry" />
        </mxCell>
        <mxCell id="aqshu1UL6HPCw5Wz6J86-33" value="Artist 1" style="text;strokeColor=none;fillColor=none;html=1;fontSize=24;fontStyle=1;verticalAlign=middle;align=center;" vertex="1" parent="1">
          <mxGeometry x="380" y="-870" width="160" height="40" as="geometry" />
        </mxCell>
        <mxCell id="aqshu1UL6HPCw5Wz6J86-34" value="" style="rounded=1;whiteSpace=wrap;html=1;" vertex="1" parent="1">
          <mxGeometry x="60" y="-690" width="520" height="290" as="geometry" />
        </mxCell>
        <mxCell id="aqshu1UL6HPCw5Wz6J86-36" value="" style="verticalLabelPosition=bottom;verticalAlign=top;html=1;shape=mxgraph.basic.tick" vertex="1" parent="1">
          <mxGeometry x="380" y="-830" width="30" height="30" as="geometry" />
        </mxCell>
        <mxCell id="aqshu1UL6HPCw5Wz6J86-37" value="&lt;font size=&quot;3&quot;&gt;All albums&lt;/font&gt;" style="text;strokeColor=none;fillColor=none;html=1;fontSize=24;fontStyle=1;verticalAlign=middle;align=center;" vertex="1" parent="1">
          <mxGeometry x="370" y="-830" width="160" height="40" as="geometry" />
        </mxCell>
        <mxCell id="aqshu1UL6HPCw5Wz6J86-38" value="&lt;font size=&quot;3&quot;&gt;Qty of songs&lt;/font&gt;" style="text;strokeColor=none;fillColor=none;html=1;fontSize=24;fontStyle=1;verticalAlign=middle;align=center;" vertex="1" parent="1">
          <mxGeometry x="370" y="-800" width="160" height="40" as="geometry" />
        </mxCell>
        <mxCell id="aqshu1UL6HPCw5Wz6J86-39" value="30 max" style="rounded=1;whiteSpace=wrap;html=1;" vertex="1" parent="1">
          <mxGeometry x="395" y="-770" width="110" height="40" as="geometry" />
        </mxCell>
        <mxCell id="aqshu1UL6HPCw5Wz6J86-40" value="Album 1" style="text;strokeColor=none;fillColor=none;html=1;fontSize=24;fontStyle=1;verticalAlign=middle;align=center;" vertex="1" parent="1">
          <mxGeometry x="90" y="-670" width="160" height="40" as="geometry" />
        </mxCell>
        <mxCell id="aqshu1UL6HPCw5Wz6J86-41" value="Search album or songs" style="rounded=1;whiteSpace=wrap;html=1;" vertex="1" parent="1">
          <mxGeometry x="335" y="-670" width="210" height="40" as="geometry" />
        </mxCell>
        <mxCell id="aqshu1UL6HPCw5Wz6J86-42" value="" style="shape=table;startSize=0;container=1;collapsible=0;childLayout=tableLayout;fontSize=11;fillColor=none;strokeColor=none;" vertex="1" parent="1">
          <mxGeometry x="105" y="-590" width="190" height="130" as="geometry" />
        </mxCell>
        <mxCell id="aqshu1UL6HPCw5Wz6J86-43" value="" style="shape=tableRow;horizontal=0;startSize=0;swimlaneHead=0;swimlaneBody=0;strokeColor=inherit;top=0;left=0;bottom=0;right=0;collapsible=0;dropTarget=0;fillColor=none;points=[[0,0.5],[1,0.5]];portConstraint=eastwest;fontSize=16;" vertex="1" parent="aqshu1UL6HPCw5Wz6J86-42">
          <mxGeometry width="190" height="33" as="geometry" />
        </mxCell>
        <mxCell id="aqshu1UL6HPCw5Wz6J86-44" value="Songs 1" style="shape=partialRectangle;html=1;whiteSpace=wrap;connectable=0;strokeColor=inherit;overflow=hidden;fillColor=none;top=0;left=0;bottom=0;right=0;pointerEvents=1;fontSize=12;align=left;spacingLeft=5;" vertex="1" parent="aqshu1UL6HPCw5Wz6J86-43">
          <mxGeometry width="190" height="33" as="geometry">
            <mxRectangle width="190" height="33" as="alternateBounds" />
          </mxGeometry>
        </mxCell>
        <mxCell id="aqshu1UL6HPCw5Wz6J86-45" value="" style="shape=tableRow;horizontal=0;startSize=0;swimlaneHead=0;swimlaneBody=0;strokeColor=inherit;top=0;left=0;bottom=0;right=0;collapsible=0;dropTarget=0;fillColor=none;points=[[0,0.5],[1,0.5]];portConstraint=eastwest;fontSize=16;" vertex="1" parent="aqshu1UL6HPCw5Wz6J86-42">
          <mxGeometry y="33" width="190" height="32" as="geometry" />
        </mxCell>
        <mxCell id="aqshu1UL6HPCw5Wz6J86-46" value="Item 2" style="shape=partialRectangle;html=1;whiteSpace=wrap;connectable=0;strokeColor=inherit;overflow=hidden;fillColor=none;top=0;left=0;bottom=0;right=0;pointerEvents=1;fontSize=12;align=left;spacingLeft=5;" vertex="1" parent="aqshu1UL6HPCw5Wz6J86-45">
          <mxGeometry width="190" height="32" as="geometry">
            <mxRectangle width="190" height="32" as="alternateBounds" />
          </mxGeometry>
        </mxCell>
        <mxCell id="aqshu1UL6HPCw5Wz6J86-47" value="" style="shape=tableRow;horizontal=0;startSize=0;swimlaneHead=0;swimlaneBody=0;strokeColor=inherit;top=0;left=0;bottom=0;right=0;collapsible=0;dropTarget=0;fillColor=none;points=[[0,0.5],[1,0.5]];portConstraint=eastwest;fontSize=16;" vertex="1" parent="aqshu1UL6HPCw5Wz6J86-42">
          <mxGeometry y="65" width="190" height="33" as="geometry" />
        </mxCell>
        <mxCell id="aqshu1UL6HPCw5Wz6J86-48" value="Item 3" style="shape=partialRectangle;html=1;whiteSpace=wrap;connectable=0;strokeColor=inherit;overflow=hidden;fillColor=none;top=0;left=0;bottom=0;right=0;pointerEvents=1;fontSize=12;align=left;spacingLeft=5;" vertex="1" parent="aqshu1UL6HPCw5Wz6J86-47">
          <mxGeometry width="190" height="33" as="geometry">
            <mxRectangle width="190" height="33" as="alternateBounds" />
          </mxGeometry>
        </mxCell>
        <mxCell id="aqshu1UL6HPCw5Wz6J86-49" style="shape=tableRow;horizontal=0;startSize=0;swimlaneHead=0;swimlaneBody=0;strokeColor=inherit;top=0;left=0;bottom=0;right=0;collapsible=0;dropTarget=0;fillColor=none;points=[[0,0.5],[1,0.5]];portConstraint=eastwest;fontSize=16;" vertex="1" parent="aqshu1UL6HPCw5Wz6J86-42">
          <mxGeometry y="98" width="190" height="32" as="geometry" />
        </mxCell>
        <mxCell id="aqshu1UL6HPCw5Wz6J86-50" value="Item 4" style="shape=partialRectangle;html=1;whiteSpace=wrap;connectable=0;strokeColor=inherit;overflow=hidden;fillColor=none;top=0;left=0;bottom=0;right=0;pointerEvents=1;fontSize=12;align=left;spacingLeft=5;" vertex="1" parent="aqshu1UL6HPCw5Wz6J86-49">
          <mxGeometry width="190" height="32" as="geometry">
            <mxRectangle width="190" height="32" as="alternateBounds" />
          </mxGeometry>
        </mxCell>
        <mxCell id="aqshu1UL6HPCw5Wz6J86-51" value="" style="shape=cross;whiteSpace=wrap;html=1;" vertex="1" parent="1">
          <mxGeometry x="190" y="-580" width="20" height="20" as="geometry" />
        </mxCell>
      </root>
    </mxGraphModel>
  </diagram>
</mxfile>
